<svg width="14" height="14" viewBox="0 0 14 14" fill="none" xmlns="http://www.w3.org/2000/svg">
<g clip-path="url(#clip0_5_49)">
<path d="M8.75002 0.583332H2.33335C1.69169 0.583332 1.16669 1.10833 1.16669 1.75V9.33333C1.16669 9.65417 1.42919 9.91667 1.75002 9.91667C2.07085 9.91667 2.33335 9.65417 2.33335 9.33333V2.33333C2.33335 2.0125 2.59585 1.75 2.91669 1.75H8.75002C9.07085 1.75 9.33335 1.4875 9.33335 1.16667C9.33335 0.845832 9.07085 0.583332 8.75002 0.583332ZM11.0834 2.91667H4.66669C4.02502 2.91667 3.50002 3.44167 3.50002 4.08333V12.25C3.50002 12.8917 4.02502 13.4167 4.66669 13.4167H11.0834C11.725 13.4167 12.25 12.8917 12.25 12.25V4.08333C12.25 3.44167 11.725 2.91667 11.0834 2.91667ZM10.5 12.25H5.25002C4.92919 12.25 4.66669 11.9875 4.66669 11.6667V4.66667C4.66669 4.34583 4.92919 4.08333 5.25002 4.08333H10.5C10.8209 4.08333 11.0834 4.34583 11.0834 4.66667V11.6667C11.0834 11.9875 10.8209 12.25 10.5 12.25Z" fill="#323232"/>
</g>
<defs>
<clipPath id="clip0_5_49">
<rect width="14" height="14" fill="white"/>
</clipPath>
</defs>
</svg>
