<svg width="28" height="28" viewBox="0 0 28 28" fill="none" xmlns="http://www.w3.org/2000/svg">
<path d="M14 27.9997C21.732 27.9997 28 21.7317 28 13.9997C28 6.26774 21.732 -0.000274658 14 -0.000274658C6.26801 -0.000274658 0 6.26774 0 13.9997C0 21.7317 6.26801 27.9997 14 27.9997Z" fill="#007AB9"/>
<path d="M22.3648 15.1263V20.8982H19.0184V15.5131C19.0184 14.161 18.5353 13.2376 17.3236 13.2376C16.399 13.2376 15.8497 13.8592 15.6071 14.4612C15.519 14.6763 15.4963 14.975 15.4963 15.2768V20.8979H12.1497C12.1497 20.8979 12.1946 11.7774 12.1497 10.8333H15.4966V12.2595C15.4898 12.2708 15.4804 12.2818 15.4744 12.2925H15.4966V12.2595C15.9413 11.5752 16.7344 10.597 18.5126 10.597C20.7142 10.597 22.3648 12.0354 22.3648 15.1263ZM8.64881 5.98178C7.50407 5.98178 6.75513 6.73322 6.75513 7.72049C6.75513 8.6868 7.48235 9.45994 8.60489 9.45994H8.6266C9.79381 9.45994 10.5195 8.6868 10.5195 7.72049C10.4973 6.73322 9.79381 5.98178 8.64881 5.98178ZM6.95403 20.8982H10.2994V10.8333H6.95403V20.8982Z" fill="white"/>
</svg>
