<svg width="28" height="28" viewBox="0 0 28 28" fill="none" xmlns="http://www.w3.org/2000/svg">
<g clip-path="url(#clip0_15_1012)">
<path d="M6.20539 16.917L5.23075 20.5555L1.66846 20.6308C0.603859 18.6562 0 16.397 0 13.9963C0 11.6747 0.564594 9.48548 1.56538 7.5578H1.56614L4.73758 8.13924L6.12686 11.2916C5.83609 12.1394 5.6776 13.0494 5.6776 13.9963C5.67771 15.024 5.86387 16.0086 6.20539 16.917Z" fill="#FBBB00"/>
<path d="M27.7538 11.3859C27.9145 12.2328 27.9984 13.1074 27.9984 14.0013C27.9984 15.0036 27.893 15.9813 27.6922 16.9244C27.0107 20.1336 25.2299 22.9359 22.763 24.919L22.7623 24.9182L18.7677 24.7144L18.2023 21.1852C19.8392 20.2252 21.1185 18.7229 21.7923 16.9244H14.3062V11.3859H21.9015H27.7538Z" fill="#518EF8"/>
<path d="M22.7633 24.9165L22.7641 24.9172C20.3649 26.8457 17.3172 27.9995 13.9995 27.9995C8.66797 27.9995 4.0326 25.0195 1.66797 20.6341L6.2049 16.9203C7.38719 20.0757 10.431 22.3219 13.9995 22.3219C15.5333 22.3219 16.9703 21.9072 18.2033 21.1834L22.7633 24.9165Z" fill="#28B446"/>
<path d="M22.9347 3.22306L18.3994 6.93612C17.1232 6.13845 15.6147 5.67766 13.9986 5.67766C10.3493 5.67766 7.24857 8.02687 6.1255 11.2954L1.56473 7.56153H1.56396C3.89398 3.06923 8.58781 0 13.9986 0C17.3955 0 20.5101 1.21002 22.9347 3.22306Z" fill="#F14336"/>
</g>
<defs>
<clipPath id="clip0_15_1012">
<rect width="28" height="28" fill="white"/>
</clipPath>
</defs>
</svg>
