<svg width="70" height="89" viewBox="0 0 70 89" fill="none" xmlns="http://www.w3.org/2000/svg">
<g id="Group" opacity="0.1">
<path id="Vector" d="M69.5079 19.47C69.4106 19.3727 69.4106 19.2753 69.3133 19.178L52.7637 0.5841C52.6664 0.48675 52.4717 0.3894 52.3743 0.29205C52.277 0.29205 52.277 0.1947 52.1796 0.1947C51.9849 0.0973501 51.6929 0 51.4982 0H10.9032C4.8675 0 0 4.8675 0 10.9032V77.4907C0 83.5264 4.8675 88.3939 10.9032 88.3939H58.8968C64.9325 88.3939 69.8 83.5264 69.8 77.4907V20.3462C69.8 20.1515 69.7027 19.8594 69.7027 19.6647C69.6053 19.5674 69.6053 19.47 69.5079 19.47ZM53.2505 6.52246L63.959 18.4965H53.2505V6.52246ZM66.1981 77.3933C66.1981 81.3847 62.9855 84.5972 58.9941 84.5972H10.9032C6.91186 84.5972 3.6993 81.3847 3.6993 77.3933V10.8059C3.6993 6.81451 6.91186 3.60195 10.9032 3.60195H49.6485V20.3462C49.6485 21.3197 50.4273 22.1958 51.4982 22.1958H66.1981V77.3933Z" fill="#191919"/>
<path id="Vector_2" d="M29.1077 18.4965H13.045C12.0715 18.4965 11.1953 19.2753 11.1953 20.3461C11.1953 21.417 11.9741 22.1958 13.045 22.1958H29.1077C30.0812 22.1958 30.9574 21.417 30.9574 20.3461C30.9574 19.2753 30.0812 18.4965 29.1077 18.4965Z" fill="#191919"/>
<path id="Vector_3" d="M29.1077 66.198H13.045C12.0715 66.198 11.1953 66.9768 11.1953 68.0477C11.1953 69.0212 11.9741 69.8973 13.045 69.8973H29.1077C30.0812 69.8973 30.9574 69.1185 30.9574 68.0477C30.86 67.0742 30.0812 66.198 29.1077 66.198Z" fill="#191919"/>
<path id="Vector_4" d="M55.9763 30.5679H13.1423C12.1688 30.5679 11.2926 31.3467 11.2926 32.4175C11.2926 33.391 12.0714 34.2672 13.1423 34.2672H55.9763C56.9498 34.2672 57.8259 33.4884 57.8259 32.4175C57.7286 31.444 56.9498 30.5679 55.9763 30.5679Z" fill="#191919"/>
<path id="Vector_5" d="M55.9763 39.5242H13.1423C12.1688 39.5242 11.2926 40.303 11.2926 41.3738C11.2926 42.3473 12.0714 43.2235 13.1423 43.2235H55.9763C56.9498 43.2235 57.8259 42.4447 57.8259 41.3738C57.7286 40.4003 56.9498 39.5242 55.9763 39.5242Z" fill="#191919"/>
<path id="Vector_6" d="M55.9763 48.4803H13.1423C12.1688 48.4803 11.2926 49.2591 11.2926 50.33C11.2926 51.3035 12.0714 52.1796 13.1423 52.1796H55.9763C56.9498 52.1796 57.8259 51.4009 57.8259 50.33C57.7286 49.3565 56.9498 48.4803 55.9763 48.4803Z" fill="#191919"/>
<path id="Vector_7" d="M55.9763 57.4365H13.1423C12.1688 57.4365 11.2926 58.2153 11.2926 59.2862C11.2926 60.2597 12.0714 61.1358 13.1423 61.1358H55.9763C56.9498 61.1358 57.8259 60.357 57.8259 59.2862C57.7286 58.3127 56.9498 57.4365 55.9763 57.4365Z" fill="#191919"/>
</g>
</svg>
