<svg width="16" height="16" viewBox="0 0 16 16" fill="none" xmlns="http://www.w3.org/2000/svg">
<path d="M8 3.33333V1.47333C8 1.17333 7.64 1.02667 7.43333 1.24L4.9 3.76667C4.76666 3.9 4.76666 4.10667 4.9 4.24L7.42667 6.76667C7.64 6.97333 8 6.82667 8 6.52667V4.66667C10.4867 4.66667 12.4533 6.94667 11.9067 9.52667C11.5933 11.04 10.3667 12.26 8.86 12.5733C6.48 13.0733 4.36 11.44 4.04 9.23333C3.99333 8.91333 3.71333 8.66667 3.38666 8.66667C2.98666 8.66667 2.66666 9.02 2.72 9.42C3.13333 12.3467 5.92 14.5133 9.07333 13.9C11.1533 13.4933 12.8267 11.82 13.2333 9.74C13.8933 6.32 11.2933 3.33333 8 3.33333Z" fill="#323232"/>
</svg>
